<?xml version="1.0" encoding="UTF-8" standalone="no"?> <svg width="101" height="101" viewBox="0 0 101 101" fill="none" xmlns="http://www.w3.org/2000/svg">
<path d="M87.77 19.9398L81.77 13.9398C81.4888 13.6589 81.1075 13.5011 80.71 13.5011C80.3125 13.5011 79.9313 13.6589 79.65 13.9398L72.9 20.6898C71.9814 21.6051 71.4017 22.8058 71.2563 24.0945C71.1109 25.3831 71.4084 26.6828 72.1 27.7798L68.93 30.9998C65.5485 21.6075 60.6095 12.8517 54.32 5.0998C53.923 4.59996 53.4182 4.19623 52.8433 3.91872C52.2685 3.6412 51.6384 3.49707 51 3.49707C50.3617 3.49707 49.7316 3.6412 49.1567 3.91872C48.5819 4.19623 48.0771 4.59996 47.68 5.0998C42.21 11.8298 29.5 29.7598 29.5 50.9998C29.522 56.7039 30.3639 62.3753 32 67.8398L28.2 71.6798C27.098 70.8445 25.7314 70.4352 24.3516 70.5271C22.9719 70.6189 21.6716 71.2058 20.69 72.1798L13.94 78.9298C13.6591 79.2111 13.5013 79.5923 13.5013 79.9898C13.5013 80.3873 13.6591 80.7686 13.94 81.0498L19.94 87.0498C20.2213 87.3307 20.6025 87.4885 21 87.4885C21.3975 87.4885 21.7788 87.3307 22.06 87.0498L28.81 80.2998C29.6115 79.4974 30.1578 78.4759 30.3803 77.3638C30.6027 76.2518 30.4913 75.0987 30.06 74.0498L33.06 71.0498C36.4496 80.4252 41.3919 89.1637 47.68 96.8998C48.0771 97.3996 48.5819 97.8034 49.1567 98.0809C49.7316 98.3584 50.3617 98.5025 51 98.5025C51.6384 98.5025 52.2685 98.3584 52.8433 98.0809C53.4182 97.8034 53.923 97.3996 54.32 96.8998C59.79 90.1698 72.5 72.2398 72.5 50.9998C72.4781 45.2957 71.6361 39.6243 70 34.1598L74.34 29.8198C75.4179 30.4012 76.655 30.618 77.8664 30.4377C79.0777 30.2575 80.1981 29.6899 81.06 28.8198L87.81 22.0698C87.948 21.9277 88.0565 21.7597 88.1293 21.5755C88.202 21.3913 88.2376 21.1945 88.2338 20.9965C88.2301 20.7984 88.1872 20.6031 88.1076 20.4217C88.028 20.2404 87.9133 20.0766 87.77 19.9398ZM26.7 78.1898L21 83.8798L17.12 79.9998L22.81 74.3098C23.0577 74.0257 23.3612 73.7955 23.7017 73.6336C24.0421 73.4716 24.4121 73.3814 24.7889 73.3686C25.1656 73.3557 25.541 73.4204 25.8917 73.5587C26.2424 73.6969 26.5609 73.9058 26.8274 74.1724C27.094 74.439 27.3029 74.7575 27.4412 75.1081C27.5794 75.4588 27.6442 75.8342 27.6313 76.2109C27.6184 76.5877 27.5282 76.9578 27.3663 77.2982C27.2043 77.6386 26.9742 77.9421 26.69 78.1898H26.7ZM32.5 50.9998C32.5 30.7198 44.74 13.4698 50 6.9998C50.1152 6.84272 50.2657 6.71499 50.4395 6.62694C50.6132 6.53889 50.8052 6.49301 51 6.49301C51.1948 6.49301 51.3868 6.53889 51.5606 6.62694C51.7343 6.71499 51.8849 6.84272 52 6.9998C58.3773 14.8393 63.3076 23.7517 66.56 33.3198L58.38 41.4998C56.57 38.7198 54 36.9998 51 36.9998C45.39 36.9998 41 43.1498 41 50.9998C40.984 53.2862 41.3838 55.5565 42.18 57.6998L34.47 65.4098C33.1876 60.713 32.5253 55.8685 32.5 50.9998V50.9998ZM58 50.9998C58 56.9998 54.79 61.9998 51 61.9998C49 61.9998 47.12 60.5498 45.82 58.2998L57.42 46.6998C57.8077 48.1001 58.0028 49.5468 58 50.9998V50.9998ZM44.58 55.2998C44.1923 53.8994 43.9972 52.4528 44 50.9998C44 44.9998 47.21 39.9998 51 39.9998C53 39.9998 54.88 41.4498 56.18 43.6998L44.58 55.2998ZM69.5 50.9998C69.5 71.2698 57.26 88.5298 52 94.9998C51.8812 95.1515 51.7294 95.2743 51.5562 95.3587C51.3829 95.4431 51.1927 95.4869 51 95.4869C50.8073 95.4869 50.6171 95.4431 50.4439 95.3587C50.2706 95.2743 50.1188 95.1515 50 94.9998C43.6226 87.1605 38.6923 78.248 35.44 68.6798L43.62 60.4998C45.43 63.2798 48 64.9998 51 64.9998C56.61 64.9998 61 58.8498 61 50.9998C61.0161 48.7134 60.6162 46.4431 59.82 44.2998L67.53 36.5898C68.8123 41.2867 69.4746 46.1311 69.5 50.9998ZM78.9 26.6998C78.3773 27.1986 77.6826 27.4769 76.96 27.4769C76.2375 27.4769 75.5427 27.1986 75.02 26.6998C74.7648 26.4453 74.5624 26.1429 74.4242 25.81C74.2861 25.4771 74.215 25.1202 74.215 24.7598C74.215 24.3994 74.2861 24.0425 74.4242 23.7096C74.5624 23.3767 74.7648 23.0743 75.02 22.8198L80.71 17.1298L84.59 20.9998L78.9 26.6998Z" fill="black" stroke="black" stroke-width="2.2"/>
</svg>
