<?xml version="1.0" encoding="UTF-8"?>
<svg id="Layer_1" data-name="Layer 1" xmlns="http://www.w3.org/2000/svg" viewBox="0 0 32 32">
  <path d="M31.567,22.455l-4.468-7.448c-.542-.908-1.5-1.452-2.562-1.455h-.008c-1.063,0-2.025,.542-2.577,1.454l-1.953,3.267-5.952-9.928c-.549-.915-1.511-1.46-2.576-1.46h-.008c-1.063,.003-2.022,.55-2.561,1.46L.433,22.454c-.564,.938-.579,2.068-.039,3.023,.539,.953,1.513,1.522,2.605,1.522H29c1.092,0,2.066-.569,2.605-1.522,.54-.955,.526-2.085-.038-3.022Zm-1.703,2.038c-.086,.152-.343,.507-.865,.507H3c-.521,0-.778-.354-.865-.507-.086-.153-.259-.558,.012-1.009L10.62,9.37c.258-.436,.679-.484,.848-.484h.002c.173,0,.597,.048,.861,.489l7.881,13.141c.188,.312,.519,.485,.858,.485,.175,0,.353-.046,.514-.143,.473-.285,.626-.899,.342-1.372l-.761-1.266,2.5-4.182c.264-.437,.689-.485,.863-.485,0,0,.001,0,.002,0,.169,0,.592,.048,.851,.482l4.47,7.451c.271,.45,.098,.854,.012,1.008Z"/>
  <path d="M21.511,10h7.71c.284,0,.554-.12,.743-.331,.667-.742,1.035-1.689,1.035-2.669,0-2.206-1.794-4-4-4-1.019,0-1.996,.397-2.732,1.088-.252-.059-.509-.088-.768-.088-1.93,0-3.5,1.57-3.5,3.5,0,.758,.247,1.485,.713,2.103,.189,.25,.484,.397,.798,.397Zm2.63-3.848c.438,.209,.958,.076,1.242-.317,.384-.531,.973-.835,1.617-.835,1.103,0,2,.897,2,2,0,.411-.124,.745-.277,1h-6.633c-.054-.144-.09-.312-.09-.5,0-1.041,1.112-1.84,2.141-1.348Z"/>
</svg>