<?xml version="1.0" encoding="UTF-8" standalone="no"?> <svg width="48" height="48" viewBox="0 0 48 48" fill="none" xmlns="http://www.w3.org/2000/svg">
<path d="M38 11H14V6C14 5.46957 13.7893 4.96086 13.4142 4.58579C13.0391 4.21071 12.5304 4 12 4H10C9.46957 4 8.96086 4.21071 8.58579 4.58579C8.21071 4.96086 8 5.46957 8 6V11.3C6.55756 11.7317 5.29245 12.6164 4.39194 13.8231C3.49142 15.0298 3.00336 16.4943 3 18V28C3.00336 29.5057 3.49142 30.9702 4.39194 32.1769C5.29245 33.3836 6.55756 34.2683 8 34.7V36.5C8.00212 38.3559 8.7403 40.1351 10.0526 41.4474C11.3649 42.7597 13.1441 43.4979 15 43.5H28C28.5304 43.5 29.0391 43.2893 29.4142 42.9142C29.7893 42.5391 30 42.0304 30 41.5V39.5C30 38.9696 29.7893 38.4609 29.4142 38.0858C29.0391 37.7107 28.5304 37.5 28 37.5H15C14.7348 37.5 14.4804 37.3946 14.2929 37.2071C14.1054 37.0196 14 36.7652 14 36.5V35H18.172C18.8288 35.0018 19.4795 34.8733 20.0863 34.6218C20.6931 34.3703 21.244 34.0009 21.707 33.535L24 31.242L26.293 33.535C26.756 34.0009 27.3069 34.3703 27.9137 34.6218C28.5205 34.8733 29.1712 35.0018 29.828 35H38C39.8559 34.9979 41.6351 34.2597 42.9474 32.9474C44.2597 31.6351 44.9979 29.8559 45 28V18C44.9979 16.1441 44.2597 14.3649 42.9474 13.0526C41.6351 11.7403 39.8559 11.0021 38 11V11ZM10 6H12V11H10V6ZM28 41.5H24V39.5H28V41.5ZM15 39.5H22V41.5H15C13.6744 41.4984 12.4036 40.9711 11.4662 40.0338C10.5289 39.0964 10.0016 37.8256 10 36.5V35H12V36.5C12 37.2956 12.3161 38.0587 12.8787 38.6213C13.4413 39.1839 14.2044 39.5 15 39.5ZM43 28C42.9984 29.3256 42.4711 30.5964 41.5338 31.5338C40.5964 32.4711 39.3256 32.9984 38 33H29.828C29.4339 33.001 29.0435 32.9238 28.6794 32.773C28.3154 32.6221 27.9849 32.4005 27.707 32.121L24.707 29.121C24.5195 28.9335 24.2652 28.8282 24 28.8282C23.7348 28.8282 23.4805 28.9335 23.293 29.121L20.293 32.121C20.0151 32.4005 19.6846 32.6221 19.3206 32.773C18.9565 32.9238 18.5661 33.001 18.172 33H10C8.6744 32.9984 7.40356 32.4711 6.46622 31.5338C5.52888 30.5964 5.00159 29.3256 5 28V18C5.00159 16.6744 5.52888 15.4036 6.46622 14.4662C7.40356 13.5289 8.6744 13.0016 10 13H38C39.3256 13.0016 40.5964 13.5289 41.5338 14.4662C42.4711 15.4036 42.9984 16.6744 43 18V28Z" fill="black"/>
<path d="M38 15H10C9.20435 15 8.44129 15.3161 7.87868 15.8787C7.31607 16.4413 7 17.2044 7 18V28C7 28.7956 7.31607 29.5587 7.87868 30.1213C8.44129 30.6839 9.20435 31 10 31H18.172C18.4372 30.9999 18.6915 30.8946 18.879 30.707L21.879 27.707C22.451 27.1627 23.2104 26.8592 24 26.8592C24.7896 26.8592 25.549 27.1627 26.121 27.707L29.121 30.707C29.3085 30.8946 29.5628 30.9999 29.828 31H38C38.7956 31 39.5587 30.6839 40.1213 30.1213C40.6839 29.5587 41 28.7956 41 28V18C41 17.2044 40.6839 16.4413 40.1213 15.8787C39.5587 15.3161 38.7956 15 38 15ZM39 28C39 28.2652 38.8946 28.5196 38.7071 28.7071C38.5196 28.8946 38.2652 29 38 29H30.242L27.535 26.292C26.5966 25.3561 25.3253 24.8305 24 24.8305C22.6747 24.8305 21.4034 25.3561 20.465 26.292L17.758 29H10C9.73478 29 9.48043 28.8946 9.29289 28.7071C9.10536 28.5196 9 28.2652 9 28V18C9 17.7348 9.10536 17.4804 9.29289 17.2929C9.48043 17.1054 9.73478 17 10 17H38C38.2652 17 38.5196 17.1054 38.7071 17.2929C38.8946 17.4804 39 17.7348 39 18V28Z" fill="black"/>
<path d="M12.707 21.293C12.5184 21.1109 12.2658 21.0101 12.0036 21.0123C11.7414 21.0146 11.4906 21.1198 11.3052 21.3052C11.1198 21.4906 11.0146 21.7414 11.0123 22.0036C11.0101 22.2658 11.1108 22.5184 11.293 22.707L14.293 25.707C14.4816 25.8892 14.7342 25.99 14.9964 25.9877C15.2586 25.9854 15.5094 25.8802 15.6948 25.6948C15.8802 25.5094 15.9854 25.2586 15.9877 24.9964C15.99 24.7342 15.8892 24.4816 15.707 24.293L12.707 21.293Z" fill="black"/>
<path d="M15.707 19.293C15.5184 19.1109 15.2658 19.0101 15.0036 19.0123C14.7414 19.0146 14.4906 19.1198 14.3052 19.3052C14.1198 19.4906 14.0146 19.7414 14.0123 20.0036C14.0101 20.2658 14.1108 20.5184 14.293 20.707L18.293 24.707C18.4816 24.8892 18.7342 24.99 18.9964 24.9877C19.2586 24.9854 19.5094 24.8802 19.6948 24.6948C19.8802 24.5094 19.9854 24.2586 19.9877 23.9964C19.99 23.7342 19.8892 23.4816 19.707 23.293L15.707 19.293Z" fill="black"/>
<path d="M28.707 21.293C28.5184 21.1109 28.2658 21.0101 28.0036 21.0123C27.7414 21.0146 27.4906 21.1198 27.3052 21.3052C27.1198 21.4906 27.0146 21.7414 27.0123 22.0036C27.01 22.2658 27.1108 22.5184 27.293 22.707L30.293 25.707C30.4816 25.8892 30.7342 25.99 30.9964 25.9877C31.2586 25.9854 31.5094 25.8802 31.6948 25.6948C31.8802 25.5094 31.9854 25.2586 31.9877 24.9964C31.9899 24.7342 31.8892 24.4816 31.707 24.293L28.707 21.293Z" fill="black"/>
<path d="M31.707 19.293C31.5184 19.1109 31.2658 19.0101 31.0036 19.0123C30.7414 19.0146 30.4906 19.1198 30.3052 19.3052C30.1198 19.4906 30.0146 19.7414 30.0123 20.0036C30.01 20.2658 30.1108 20.5184 30.293 20.707L34.293 24.707C34.4816 24.8892 34.7342 24.99 34.9964 24.9877C35.2586 24.9854 35.5094 24.8802 35.6948 24.6948C35.8802 24.5094 35.9854 24.2586 35.9877 23.9964C35.9899 23.7342 35.8892 23.4816 35.707 23.293L31.707 19.293Z" fill="black"/>
</svg>
